<svg width="48" height="48" viewBox="0 0 12.7 12.7" version="1.1" xmlns="http://www.w3.org/2000/svg"><g><path style="fill:#ffaacc;fill-opacity:0.960784;stroke-linejoin:bevel;stroke-opacity:0.334397" d="m 13.372679,2.9440367 h 9.638874 c 0.847932,0 1.530563,0.6826312 1.530563,1.5305631 v 9.6388732 c 0,0.847932 -0.682631,1.530564 -1.530563,1.530564 h -9.638874 c -0.847931,0 -1.530563,-0.682632 -1.530563,-1.530564 V 4.4745998 c 0,-0.8479319 0.682632,-1.5305631 1.530563,-1.5305631 z" transform="translate(-11.842116,-2.9440367)" /><path style="display:inline;fill:#ffffff;fill-opacity:0.960784;stroke-width:0.791667;stroke-linejoin:bevel;stroke-opacity:0.334397" d="m 14.376728,4.2669535 h 7.630775 c 0.67128,0 1.211696,0.5404163 1.211696,1.2116958 v 7.6307747 c 0,0.67128 -0.540416,1.211696 -1.211696,1.211696 h -7.630775 c -0.671279,0 -1.211696,-0.540416 -1.211696,-1.211696 V 5.4786493 c 0,-0.6712795 0.540417,-1.2116958 1.211696,-1.2116958 z" transform="translate(-11.842116,-2.9440367)" /><path style="fill:#ffce0a;stroke:#ffce0a;stroke-width:0.378802;stroke-linecap:round;stroke-linejoin:round" transform="matrix(1.0221215,0,0,1.0221215,3.3661027,2.9163657)" d="M 4.8194407,4.413665 5.8754813,7.7953145 2.9501212,5.7970543 0.06031586,7.8463957 1.0567883,4.4467165 -1.7852502,2.3316297 l 3.541214,-0.102857 1.1333289,-3.3565371 1.1921182,3.3361101 3.5424743,0.040633 z" /></g></svg>